/* XPM */
static char *_f30d9a896de4d6983153230d3e88771dZb57sRfa5YaNZTE[] = {
/* columns rows colors chars-per-pixel */
"48 48 220 2 ",
"   c #010004",
".  c #0B0206",
"X  c #03020B",
"o  c #0A040B",
"O  c #0B090C",
"+  c #140506",
"@  c #1B0607",
"#  c #14060A",
"$  c #1B0708",
"%  c #1C0A0A",
"&  c #050313",
"*  c #090514",
"=  c #0E0A13",
"-  c #05041B",
";  c #09061A",
":  c #0B081C",
">  c #130B15",
",  c #130B1A",
"<  c #1A0E1B",
"1  c #0F101D",
"2  c #191219",
"3  c #270B08",
"4  c #340C04",
"5  c #27110D",
"6  c #2D130C",
"7  c #351505",
"8  c #3A1603",
"9  c #361806",
"0  c #3C1B05",
"q  c #331509",
"w  c #3A1609",
"e  c #35190B",
"r  c #3B1B09",
"t  c #251215",
"y  c #2A1615",
"u  c #321B15",
"i  c #371A14",
"p  c #2E251E",
"a  c #382519",
"s  c #060623",
"d  c #090723",
"f  c #0A0925",
"g  c #07072C",
"h  c #08072B",
"j  c #0A092B",
"k  c #130D27",
"l  c #19122A",
"z  c #0C0C33",
"x  c #0A0C37",
"c  c #121137",
"v  c #13113D",
"b  c #2C2728",
"n  c #352827",
"m  c #3D332C",
"M  c #2B2B36",
"N  c #322F32",
"B  c #2F3335",
"V  c #393235",
"C  c #32353A",
"Z  c #3B3C3D",
"A  c #451405",
"S  c #431A02",
"D  c #431D0A",
"F  c #4A1F0C",
"G  c #5D1D03",
"H  c #461C14",
"J  c #651B00",
"K  c #4A2406",
"L  c #45230B",
"P  c #4B260D",
"I  c #4E290E",
"U  c #582707",
"Y  c #5D220B",
"T  c #522A0E",
"R  c #592D0E",
"E  c #452417",
"W  c #442A16",
"Q  c #4E2A11",
"!  c #43291B",
"~  c #4A2B19",
"^  c #542E12",
"/  c #592F10",
"(  c #51241C",
")  c #4E321B",
"_  c #573013",
"`  c #5D3212",
"'  c #5E311B",
"]  c #5B3B1F",
"[  c #6E2100",
"{  c #662A0B",
"}  c #7A2600",
"|  c #712806",
" . c #762C04",
".. c #7B2B01",
"X. c #7E350C",
"o. c #6D2F10",
"O. c #633513",
"+. c #693316",
"@. c #663815",
"#. c #6B3B16",
"$. c #653B19",
"%. c #6B3E1A",
"&. c #723D17",
"*. c #783813",
"=. c #442E23",
"-. c #4B3526",
";. c #43312A",
":. c #563625",
">. c #553A22",
",. c #5B3C22",
"<. c #553B2C",
"1. c #493F3F",
"2. c #613D21",
"3. c #7F430F",
"4. c #6D421C",
"5. c #72451D",
"6. c #784419",
"7. c #57453A",
"8. c #644123",
"9. c #6B4422",
"0. c #674129",
"q. c #724720",
"w. c #754922",
"e. c #7B4C23",
"r. c #73472C",
"t. c #6C4734",
"y. c #6E513D",
"u. c #7B5339",
"i. c #2F3748",
"p. c #393E45",
"a. c #394246",
"s. c #444244",
"d. c #474D4F",
"f. c #564A47",
"g. c #575658",
"h. c #614E43",
"j. c #67534A",
"k. c #6A574B",
"l. c #7D5C42",
"z. c #725B4A",
"x. c #685956",
"c. c #6B5E56",
"v. c #725F52",
"b. c #6D615C",
"n. c #746358",
"m. c #595E64",
"M. c #605E60",
"N. c #5B6467",
"B. c #5D6A71",
"V. c #646364",
"C. c #6D6966",
"Z. c #63676C",
"A. c #6B6B6B",
"S. c #756A64",
"D. c #746B68",
"F. c #7C716B",
"G. c #636C72",
"H. c #6A6F72",
"J. c #716E71",
"K. c #727274",
"L. c #7B7875",
"P. c #7D7C7D",
"I. c #902E00",
"U. c #863403",
"Y. c #8B3401",
"T. c #883907",
"R. c #853708",
"E. c #8C3908",
"W. c #913401",
"Q. c #963A02",
"!. c #843E12",
"~. c #A23900",
"^. c #B23F00",
"/. c #8F4700",
"(. c #9E4205",
"). c #894418",
"_. c #9D4D14",
"`. c #9B521C",
"'. c #A24302",
"]. c #AC4803",
"[. c #B64600",
"{. c #BB4500",
"}. c #B44B01",
"|. c #BC4C00",
" X c #A55013",
".X c #A75215",
"XX c #B55713",
"oX c #B76315",
"OX c #BC6A14",
"+X c #854C22",
"@X c #835124",
"#X c #855429",
"$X c #955828",
"%X c #8D5A34",
"&X c #AB5F26",
"*X c #B26328",
"=X c #B56B35",
"-X c #B97631",
";X c #C14D00",
":X c #C56C09",
">X c #83654F",
",X c #9F6C48",
"<X c #B6936C",
"1X c #B79873",
"2X c #C38E53",
"3X c #C39C6C",
"4X c #858687",
"5X c #9A8E88",
"6X c #969696",
"7X c #A99A91",
"8X c #A4A3A3",
"9X c #A5A7A8",
"0X c #A6A9AA",
"qX c #ACADAD",
"wX c #B4ABA5",
"eX c #AAAEB1",
"rX c #AFB2B4",
"tX c #B2B3B3",
"yX c #B4B9BC",
"uX c #BBBABA",
/* pixels */
"                X         X X   X &   X X X   X & & & & X X & - ; - & - & X & - - - g v x j j s ",
"                          X X         X 6 O & 6 7 & & O & & * - : - d d & & - - : s x v z j j j ",
"                X X   X X & X &   X u Q.'.f.m.R.U.g.h.(.*.k & - s s v h - - - - s g g g g j j c ",
"                  X X   &   O A =.N.n.].}.%XV.Y.U.Z.>X[. Xg.V D > h v h - - - - g g s s s s f j ",
"          X     X X       1 +.W.).Z.m.E.Q.2.Z Y Y p.0.^.+XB.%X;X' x x h f s s f j g g h s s s j ",
"X     X       & X   &   n Z.k.U...;.b w 3 6 6 6 6 5 5 A a Z Q.].J.g.H z h s s - j c j g d f f j ",
"    X   X X X & X   + E.$XM.d.E 4 6 w D O.O.O.R O.#.^ w q 5 H :.g.&.Q.( g f s - f v f - - s j j ",
"  X   X X     X X & @.|.|.&.t 4 L ^ ` Q +.#.#./ O.&.` T ' T w 5 u ..*.M.M - s f : f f : d - - s ",
"    X X X   X X & B A.y.X.4 P O.^ _ ^ P @.#.#./ O.#./ I _ _ ^ @.F 6 1.g.!.Y s s ; d s s - - - - ",
"  X X   X     & 2 x.N.a.t R 6.R Q _ ^ Q @.#.#./ #.#.` I / ^ I @.4.F t [ Y.U.t & ; - s - & - - - ",
"      X X & X o  .Y.*.u K &.#.O.Q / / P @.#.@.` #.#.` I ^ ^ T O.#./ 7 A R.v.i.  * - & & & & - ; ",
"  X   & X X X u R.U.} 4 ^ #.#.O.Q ^ / P O.#.O.` #.O.` P Q ^ T O.#.O.K 3 1.C.u.{ X & & & - & - - ",
"X X X &   & X M A.f.H 7 ` #.O.O./ _ ^ P O.@.@.` #.@.` I ^ ^ Q O.#.` T q Y ].}.}.t - & & & & & - ",
"X X X X X &   p.L.d.y D ` #.#.O./ ^ _ P O.#.O.` #.@.` Q ^ _ I O.+.O.P q J {.].(.u - - & & & & - ",
"X X X X X X & f.V.s.6 K R #.@.O.^ _ _ Q ` #.O.` #.@.` Q _ ^ T O.#.O.I e F #X>Xs.& & * & - & & & ",
"  X & X & X = (.}.W.7 P / #.#.O.^ ^ ^ Q O.#.O.` #.#.` Q ^ _ R O.%.@.I r y g.C.f.& & & - & - & X ",
"X X & & & & = ).`. .7 L R #.#.` I ^ Q L O.#.O.^ 4.#.R I _ ^ P ` #.` P r 8  .R.Y.w & & - & & & & ",
"X & & & & & ; Z.N.N 0 ` ^ #.4.$.` $.' ^ ` 4.O.I O.4.I L ` ` T $.4.` I P 8 } Y.W.A - & & & & X & ",
"& & - & & & , c.c.m ^ 4.6.5.w.5.5.5.5.w.5.w.5.^ O.w.5.4.5.w.e.5.4.w.e.4.I +.r.r.t & & & * & X & ",
"* & & - - & { |.}.U.a 2.e.e.>.e.e.] 2.@Xe.] 4.T $.] 5.#X8.9.@X9.8.e.w.) I s.H.H.f & * * & & & & ",
"* & & & * - H _._.{ P _ _ ` ` O.4.4.4.5.4.$._ L ` w.4.4.4.5.5.4.4.4.$.` Q )..X.Xi & * & & & = & ",
"* & - - & - d m.N.b 7 r 0 K P L 0 0 0 r L I P 0 0 0 0 0 r L 0 L L D r r 7 ~.[.}.r & X & & X & & ",
"* - * & * - < j.z.a r P T #.&.R Q _ Q P @.#.` K m p u P _ I P ` O.R D L 7 ,.l.u.2 & X X X & & & ",
"* & * & & - H W.Y.J r I T @.#.O.T _ ^ T 4.#.@.K m B p I _ ^ I 4.+.O.^ P w p.A.A.,   & & & o X X ",
"& * = & & - t *.!.G r P Q @.#.` Q ^ ^ I @.#.O.P m B p P _ Q P 4.#.O.I K q | E.E.A & o & o & * X ",
"; * & X & = - s.N.b 0 P T @.#.` Q ^ Q T O.@.O.P m B p K ^ Q K O.@.O.I K 7 } U.Y.A X & o * & ; * ",
"- ; * & * * - f.n.! r L Q @.#.` I ^ ^ P @.@.` P ;.B p I Q Q P @.#.O.P I w [ U.U.w & o * = & o & ",
"- ; * * : - l Q.}.[ w P P @.#.O.Q ^ / T @.#.` K 4.` R I ^ ^ P @.4.O.P P w ;.k.k.> & & & k * X X ",
"; ; * * ; ; k ^.|.[ e P T O.+.O.I / ^ Q #.#.` L O.6.@.T _ ^ P $.&.O.P P w C B.G.& & & & * * & X ",
"; ; - ; * ; , E. XJ r I I O.#.` I ^ ^ P @.#.O.K O.4.` I _ _ I ` 4.O.P P w ' %X$X5 X & o X * = & ",
"; : ; * * * & V C.p 0 I I O.%.` Q _ _ Q O.#.O.L O.4.O.I ^ ^ P O.#.@.P I q I.;X{.e & o   X * * & ",
"o * = & * ; < E.XX .6 W T O.) ^ T ~ W P ` ) O.K ` ) ` T W ) I ` ) O.P a e o.$X).% X o X X o X   ",
"& * ; * * - t ].;X} q I I O.&.` P ^ ^ P O.%.@.K O.#.O.T _ _ P ` #.O.P P 0 N B.m.X X X o X & o X ",
"o & * * * * # !.`.{ q P T O.#.` Q / _ Q O.#.O.P / #.O.Q ^ ^ Q ` %.@.P L e E l.t.$ X o X o o o o ",
"o & o * = * X M m.b 7 I P O.#.O.P _ _ T O.#.@.I ` #.` I ^ ^ I _ %.O.Q L 7 J Y.W.w X X o o o X X ",
"X o X o * - o -.h.E 7 I I O.#.O.P _ ^ ^ O.#.@.T ` #.O.P ^ _ I / #.O.I L 7 G T.U.5   o X X o X o ",
"o & o o o & # } Y.J q P T O.&.O.I _ _ T O.#.O.I O.#.O.P ^ ^ I / #.O.I L 9 n g.m o o . X o o o X ",
"& X , l = X =  .Q.G w P P @.&.@._ _ _ R #.#.@.K O.#.O.P Q ^ T R #.@.T P 7 f.4XK.>   X o o X o o ",
"O o * : * = 1 5X7Xx.0 L D / O.R L Q / P ` @.O.K ` #.O.P Q Q P P #.` P P 4 x.rXqXN   o o .     o ",
"        * , 2 0XtXD.R e.w.5.5.%.$.` ` ` %.%.4.^ @.%.@.T _ $.' $.&.O.Q Q 8 x.9XqXN   o o . o . . ",
"      o O   > 8XrXS.R ] w.e.8.#Xe.] 5.e.@X8.4.] q.9.5.6.w.9.#X@Xw.9.e.w.` v.0XtXV   .   . o o . ",
"            > 8XrXn.O.9.9.4.8.w.e.9.e.w._ _ I T w.8.e.e.e.8.w.6.8.,.e.,.P z.0XtXV   . . . . + . ",
"        X   O 8XqXb.0 T P K U P K K K 8 8 0 0 8 P T ^ ` ` $.K 8 S S 8 0 3 f.0XeXN   . . . . . # ",
"  .     O   2 4X6XA.=.-.-.<.<.<.7.7.h.k.v.D.F.S.c.c.D.L.L.L.K.A.D.D.A.z./.$X,X=XO.  . .   . . o ",
"  O     X   M.uXqXqXtXqX9XwXrXrXrXtXtXtXtXyXrXyXtXuXuXtXtXwX<X3X<X1X3X-XOXoX.XoX).  . . + + . . ",
"      O     V.qX6X8XrXtXuXuXuXuXuXuXuXuXuXuXuXuXuXtX2X-X-X*XoX:XOXoXOXOX&XXX&X-X3.. + + + + @ + ",
"            i.<XJ.K.H.J.P.4X<XG.P.L.K.A.A.Z.V.x.g.>.U U T U R ~ R ` ~ U U ^ Q U 9 . + + @ @ $ 3 ",
"            & O O O O o   X X &                                   X               + # @ @ @ @ 3 "
};
