/* XPM */
static char *_8810609a30a4bbab8edaf5ab25ee5451dBEspWy4xRxMS8n[] = {
/* columns rows colors chars-per-pixel */
"48 48 227 2 ",
"   c #030105",
".  c #0A0306",
"X  c #04020B",
"o  c #09040B",
"O  c #070A09",
"+  c #130506",
"@  c #140608",
"#  c #1C0708",
"$  c #051C04",
"%  c #081408",
"&  c #050313",
"*  c #090514",
"=  c #0A0914",
"-  c #06051A",
";  c #0A051B",
":  c #040C1A",
">  c #0B081C",
",  c #110C1C",
"<  c #0C1717",
"1  c #230708",
"2  c #022403",
"3  c #082908",
"4  c #12210F",
"5  c #083604",
"6  c #183A09",
"7  c #16251A",
"8  c #153316",
"9  c #060622",
"0  c #0B0623",
"q  c #050B24",
"w  c #0C0924",
"e  c #07072C",
"r  c #0A062A",
"t  c #050B2B",
"y  c #0B092B",
"u  c #110C22",
"i  c #110B2B",
"p  c #08142E",
"a  c #0C0B32",
"s  c #090C36",
"d  c #120E38",
"f  c #071638",
"g  c #151135",
"h  c #074704",
"j  c #0B4501",
"k  c #0C4B01",
"l  c #154A06",
"z  c #045001",
"x  c #0B5302",
"c  c #015E00",
"v  c #0D5B00",
"b  c #0D5409",
"n  c #165506",
"m  c #184A11",
"M  c #2A5616",
"N  c #0A6701",
"B  c #116400",
"V  c #156806",
"C  c #0E7201",
"Z  c #187603",
"A  c #137900",
"S  c #206806",
"D  c #257B06",
"F  c #2A7812",
"G  c #377B15",
"H  c #376621",
"J  c #050D49",
"K  c #051747",
"L  c #08195B",
"P  c #05254B",
"I  c #042759",
"U  c #0F2E5B",
"Y  c #061968",
"T  c #021771",
"R  c #043267",
"E  c #0A3169",
"W  c #062277",
"Q  c #023977",
"!  c #0C477B",
"~  c #1A8300",
"^  c #1B8404",
"/  c #248500",
"(  c #248A05",
")  c #34850F",
"_  c #239000",
"`  c #2A9302",
"'  c #299C00",
"]  c #329B02",
"[  c #359708",
"{  c #2C9A13",
"}  c #329916",
"|  c #2AA700",
" . c #32A302",
".. c #38A706",
"X. c #3CAB09",
"o. c #36B400",
"O. c #3CBA00",
"+. c #3BA717",
"@. c #4B941B",
"#. c #40AF00",
"$. c #46BB04",
"%. c #48AD16",
"&. c #4ABA15",
"*. c #55BB1C",
"=. c #58B424",
"-. c #73AB3A",
";. c #3BC600",
":. c #3ECC00",
">. c #46C100",
",. c #43C901",
"<. c #4AD200",
"1. c #4EC31B",
"2. c #58C618",
"3. c #63D619",
"4. c #51C225",
"5. c #64CA24",
"6. c #6CCB2A",
"7. c #62DC2C",
"8. c #73DE2A",
"9. c #74CF34",
"0. c #77D534",
"q. c #7AD23A",
"w. c #81D83B",
"e. c #83E83C",
"r. c #91F83C",
"t. c #85D844",
"y. c #88D74A",
"u. c #8DDA4B",
"i. c #93DC53",
"p. c #8EEB46",
"a. c #96E94A",
"s. c #9BE554",
"d. c #A2F74D",
"f. c #A1E75A",
"g. c #A8F156",
"h. c #A7E862",
"j. c #BAF967",
"k. c #B8ED71",
"l. c #C5F877",
"z. c #051D95",
"x. c #05278C",
"c. c #033F86",
"v. c #043896",
"b. c #011EB2",
"n. c #022DA6",
"m. c #0536A8",
"M. c #0228BC",
"N. c #0436B7",
"B. c #08508F",
"V. c #0145AC",
"C. c #0059AB",
"Z. c #0056B4",
"A. c #0567AB",
"S. c #1A64AB",
"D. c #0076A9",
"F. c #076CBA",
"G. c #1564B6",
"H. c #0078BF",
"J. c #0018C6",
"K. c #001CCA",
"L. c #0129C3",
"P. c #0026C9",
"I. c #0031C5",
"U. c #0038C7",
"Y. c #003CCB",
"T. c #012AD2",
"R. c #002DDA",
"E. c #0136D5",
"W. c #023BDA",
"Q. c #0339E3",
"!. c #0345C5",
"~. c #004BC5",
"^. c #0045CA",
"/. c #004CC9",
"(. c #0054C6",
"). c #005DC7",
"_. c #0054CA",
"`. c #005CCB",
"'. c #0145D1",
"]. c #034AD7",
"[. c #085BDA",
"{. c #0063C4",
"}. c #066EC6",
"|. c #0164CB",
" X c #016CCB",
".X c #0478CB",
"XX c #026AD3",
"oX c #0674D5",
"OX c #0679D3",
"+X c #0C7CDB",
"@X c #0348E7",
"#X c #064DEC",
"$X c #0453EA",
"%X c #0558E8",
"&X c #0759F6",
"*X c #0765E5",
"=X c #106CEC",
"-X c #0B78EA",
";X c #127BE7",
":X c #0865F5",
">X c #0973F6",
",X c #0C7BF6",
"<X c #0087CA",
"1X c #0A82DB",
"2X c #1882DA",
"3X c #0897DB",
"4X c #0D86E8",
"5X c #1788E9",
"6X c #0F93E8",
"7X c #109AE3",
"8X c #1593EB",
"9X c #1398E8",
"0X c #0F87F7",
"qX c #188BF6",
"wX c #1696F5",
"eX c #218DFA",
"rX c #2194F6",
"tX c #2597FB",
"yX c #14A9E8",
"uX c #17B3EB",
"iX c #15A4F2",
"pX c #19A8FA",
"aX c #1CB6F5",
"sX c #1EBCFA",
"dX c #22BBFB",
"fX c #1EC2F8",
"gX c #D3F989",
/* pixels */
"                          X X   X &   X X X X X & & & & X   & - > - - - &   & 9 - 9 e d s a r 9 ",
"                          X X X       X X   X X X & & & & - & - > - - q - & & 9 - 9 s s y y y 9 ",
"                  X       X & X X   X X & X   & & & & & 9 q : - w 9 s y - - - - 9 9 e e y e y d ",
"                  & X X & X X X &   X & & X & & : & X - w - & & * w J y - - : - e e e 9 9 q e y ",
"                X X     X X & & X X X & & X & : - - & & - & - - - y a y 9 r 9 r a e e e 9 9 9 y ",
"    X         X X   X   X & & & & X X & & & & & = > - & & > & X - y a a r 9 - - i a r 9 9 w 9 y ",
"      X X X X & X   X   X & - & & & & & & - & X X     . & = p p g d r i y 9 9 - i U I 9 - 9 r y ",
"      X X     X X & X X X & & - & X X & & & 9 p f U ! B.S.G.F.2X}.}.G.E 9 0 9 0 f H..XK & 9 - 9 ",
"    X X X X   X & &   X X - - - X > P R ! S.A.2X8X1XtXwX2XtX4X+XeX+X-X=Xc.9 9 9 C. X{.A.f & - - ",
"  X         X & & & & & & - X p B.F.2XrX+XwXtX.XwX5X}.rXOX+XeX}.;X;X X]._.Q & Q ).).<X3XB.& 9 - ",
"  X X X X &     & & & & 0 & U }.4XeXoX2XqX}.qX;XoXrX}.;XqX}.qX7X7XaX7X8X%XZ.W I.U.(.).XX!   9 - ",
"    X X     P K X & & - * K |.qXXX;X5X XeX+X+XwX.XrX8X7XdXyXaXdXuXsX6X4X;X_.K.K.U.^._.|.K X 9 - ",
"  X & X   q H.<XR - & & q N.].1XwX7XdXyXpXaXyXfXuXuXsXuXdXuXiXpX7XwX'.I.*XY.J.L.~.).{.oXR   - - ",
"X X   &   P  X{. Xc.t   I '.;XyXfXuXdXuXuXsXyXaXiXiXpX6XwX9X6XwX;X0X>X'.].Y.b.L.Y./.).XXR   & & ",
"X X X   : D.<X X_.'.m.J v._.*X[.-XiXiXiX6XpX4XwXwX4XwX-X0X,X>X,X*X>X$XJ.'.n.J n.^.(._.Z.f & & & ",
"  X & X q F. X|.^.L.P.K.^.~.^.E.[.wX4XqX-X0X-X,X>X*X,X%X:X&X$X:XW.:XR.R.@XL 0 f V._.|.R   - - X ",
"  X & &   R )._././.I.J.L.!.'.].*X>X*X>X%X>X#X:X$X#X:XE.:XE.#X#XR.&XR.^.L ; -   P |.{.p   & & & ",
"& & & & & - C. X|.^.I.P.L W '.K.T.@X$X$XQ.:XT.:XW.#X#XQ.&XT.#XL.N.n.T t X - & & & c.Q X & & & X ",
"& & - - & & C.|.(.!.'.x.0 i Y M.@XR.#XQ.@XQ.R.$XM.!.z.x.T J K r e & X X & & & & = & & & & - & & ",
"& & & - - & I )._._.!.J 0 a 0 f W z.m.z.v.Y L J a y u * o o o * * & & & & & & & & ; & & & & & & ",
"& & & & & : & I {.`.V.0 y i w r r 0 0 0 > ; ; * & * 9 ; * ; & - - - & & & ; & & & ; & * & & & & ",
"- & - & * ; 0 & Q oXQ - y w 0 w i y 0 ; ; > > 0 - ; ; & & & & * * & & & - ; & X & & X & & X & & ",
"- * - & & ; w > > E d w i u w i 0 i 0 > 0 * * > > * & & * & & * * & X & & * & * * * X X X & & & ",
"& & * & * ; 0 w * * > y i 0 0 g 0 ; w i > ; * > u * & & & * * & & & X X & X & * X X & & & X X X ",
"& * * & & ; > w w ; > 0 0 > m 8 0 0 0 0 w ; * * * u u * * ; * * & & X & X & X X X X & X X * & X ",
"; * * * X & ; w i w > m D D ;. .u r u u u > & * & u u ; X * ; ; & * * & X X & X * X X * * * ; * ",
"- ; & X * * ; w y 0 < ~ ,.:.O.,.7 i 0 - - * O * - & * * & * * * & * * & & X X * *   X * * * X * ",
"; ; ; * > ; 0 0 > - 4 (  .,.,.<.M 0 & 4 M G @.) 6 & & & * & o * * * * & X * & * * & * * u * X X ",
"> ; * * * ; 0 ; * = Z o...#.>.<.F ; H t.w.u.h.f.6.G l O * * * * * * * * * * * * X * X & ; & * X ",
"> ; ; ; ; ; > > * 8 ' o.;.>.$.>.) n 5.0.q.h.gXgXl.s.w.@.4 X * X * & X & * * X X X & * X   * = & ",
"* ; ; * * * * ; ; 3 A `  .O.$.o.X.+. .*.q.u.f.l.k.i.f.l.-.< * * X o & o * X o X * X X X X = * & ",
"o * * * * * * ; * 3 A ~ `  ... .&.2.X.5.-.w.y.u.i.i.u.k.l.M   o o X X X & o * X X o o X X X X X ",
"* * ; * * ; * * * 3 C A ~ / S l ( +.1.e.d.t.t.y.y.u.t.u.a.@.  o % 6 2 %   & X X X X   o o * o X ",
"X * * * * * * * * 3 c b 8 < * * b ^ 1.r.d.p.9.q.t.i.w.9.5.[ O 3 D 5 2 2 $ o X o X o X o o X X o ",
"* * o * * * & o * = < * * * o * V %.| 3.8.6.6.0.g.j.g.6.6.=.n ' ` 5 5 h $ o X o o X o X o X X o ",
"o X X X * * * * * * * o * o o & b 7.+._ $.&.&.5.e.d.d.*.9.%.' o.] h z h O   X X o X X o o o . X ",
"X X o * o o o * o & * o o * * o 5 { +.N +.8.=.( [ %.%.' ` _ o.;./ k B 5 o X o o o X X X o o X o ",
"* X , u * * o o X o o * * X o o % N N N %.8.p.=.A A C ^ A ^ | ` x v B 5 X . o o o o . o o X X o ",
"O X * > = , = o o o o * o X X o X 3 } +.C ( } ( Z Z +.S 3 ( ' / v B C l . o o o . o o o .   . o ",
"        o , = o o o o X o o o X X & < F ^ N c N { 4.G % X l |  .B B A k X o .   .   . o . X . . ",
"        o X X X   X o X o o   o o o o   2 h z z b 3   . o . ~ ' v V A j . o . . o . . . . . . o ",
"            o   o   o o o         X   o       O   X o X     k Z v B k % . .     . . . .   . . + ",
"        o   o o o   o O o   o     .       .       .   . O . 2 x x 3     . . . .   . .   . . . + ",
"      O       O o       o O   o o   .                 . O o   $ $ . .   .   . . . . . . . . . o ",
"                          .   o O   .         . .       .   .   .   . . . . . . . . . . + + . . ",
"            . o               o = .               . O .     . . . . . . . . . . . + + + + @ + + ",
"              o O o o   O       O     . .   .       o . . . .   + . . . . . . . . + + @ + # 1 # ",
"                o     .       o .       .       .   .     . . . + + . . . . + + + + @ # # 1 1 1 "
};
