/* XPM */
static char *s239d2p2KYN_png[] = {
/* columns rows colors chars-per-pixel */
"48 26 158 2 ",
"   c #010126",
".  c #05052A",
"X  c #08062E",
"o  c #07082C",
"O  c #090A2E",
"+  c #090730",
"@  c #0D0C33",
"#  c #100E37",
"$  c #110E38",
"%  c #0F1033",
"&  c #121335",
"*  c #15133B",
"=  c #18153D",
"-  c #18173C",
";  c #18173D",
":  c #18153E",
">  c #19153E",
",  c #18163E",
"<  c #19163E",
"1  c #18173E",
"2  c #19173E",
"3  c #1A173F",
"4  c #18163F",
"5  c #171838",
"6  c #161839",
"7  c #171839",
"8  c #161939",
"9  c #171939",
"0  c #16183A",
"q  c #17183A",
"w  c #17193A",
"e  c #17183B",
"r  c #181939",
"t  c #18193B",
"y  c #181A3A",
"u  c #191A3A",
"i  c #181A3B",
"p  c #191A3B",
"a  c #191B3B",
"s  c #19193C",
"d  c #19183D",
"f  c #191A3C",
"g  c #191B3C",
"h  c #1A1B3D",
"j  c #18183E",
"k  c #19183E",
"l  c #19193E",
"z  c #19183F",
"x  c #19193F",
"c  c #1A193F",
"v  c #1A1A3E",
"b  c #1A1A3F",
"n  c #1B1A3F",
"m  c #1A1D3C",
"M  c #1B1D3C",
"N  c #1A1C3D",
"B  c #1B1D3D",
"V  c #1C1D3F",
"C  c #1C1E3E",
"Z  c #1F213F",
"A  c #161440",
"S  c #191642",
"D  c #1A1840",
"F  c #1A1940",
"G  c #1B1940",
"H  c #1B1A40",
"J  c #1B1B41",
"K  c #1C1941",
"L  c #1C1A41",
"P  c #1C1B40",
"I  c #1E1B42",
"U  c #1D1D41",
"Y  c #1C1D40",
"T  c #1E1F41",
"R  c #1D1D42",
"E  c #1E1C43",
"W  c #1F1D43",
"Q  c #1F1F43",
"!  c #1F1D44",
"~  c #1C1A44",
"^  c #1E1D4B",
"/  c #1F1F51",
"(  c #201E44",
")  c #201F47",
"_  c #201F4C",
"`  c #201F54",
"'  c #1E2040",
"]  c #1F2053",
"[  c #212145",
"{  c #212046",
"}  c #232346",
"|  c #242545",
" . c #242645",
".. c #212047",
"X. c #27274A",
"o. c #252549",
"O. c #23224D",
"+. c #28274D",
"@. c #27284A",
"#. c #292B48",
"$. c #292B4A",
"%. c #2B2C4E",
"&. c #2E2F4D",
"*. c #2C2C4F",
"=. c #29294D",
"-. c #2D314C",
";. c #2F324E",
":. c #242453",
">. c #282754",
",. c #272853",
"<. c #2A2A54",
"1. c #26265B",
"2. c #28275C",
"3. c #272859",
"4. c #2A2A5C",
"5. c #2F305A",
"6. c #333355",
"7. c #32335D",
"8. c #3B3F58",
"9. c #3C3F58",
"0. c #262760",
"q. c #272961",
"w. c #2B2C63",
"e. c #2C2F69",
"r. c #2F3163",
"t. c #2E3169",
"y. c #313264",
"u. c #3E3F65",
"i. c #32346A",
"p. c #36386C",
"a. c #393B6D",
"s. c #363971",
"d. c #3D406C",
"f. c #404163",
"g. c #53566C",
"h. c #444674",
"j. c #4B4D77",
"k. c #464879",
"l. c #5B5F73",
"z. c #5C5E7E",
"x. c #5D6073",
"c. c #5F6275",
"v. c #63667E",
"b. c #4E5282",
"n. c #565781",
"m. c #5C5E80",
"M. c #676987",
"N. c #606388",
"B. c #747786",
"V. c #6B6F94",
"C. c #6F7298",
"Z. c #717491",
"A. c #767991",
"S. c #7C7F9A",
"D. c #979AAB",
"F. c #A9ABB3",
"G. c #A5A7B9",
"H. c #B7B8C9",
/* pixels */
"O O O . . & O . O . o . . o & a O 6 M % @ o 5 . @ O   . O   @ a   O . O . O .     O O O   .     ",
". . O . . O     O O & O @ & 5 a M a 6 a % Z B.9.  5 O .   . % O @ 6 5 . & x.5 o     O O o       ",
"O O a . . o   . . O O @ O O 6 @ 6 Z @ . 6 ;.F.c.@ o   % . o &   O . @ @ @ | a . | $.O % . . O   ",
"& ;.l.' . O O .   @ O O 0 . O @ & O M C O @ 8.6 @ @ @ O O @ & . & . . % .   % @ d 5 . .   O @ . ",
"0 @ a ' . O O o o & @ @ g.$.O O @ @ d M 6 d & C 0 . a @   & @ @ o O O @ O 6 O & @ O & . . & O O ",
"@ 0 . @ & O @ o @ @ & o &.d & & 6 & C ' E | 0 @ d @ @ @ 0 & @ . o & @ @ @ d 0 a @ @ @ O O & X   ",
"# d P d * @ # @ 0 @ X @ @ 0 d * E @ E { # @ d & E = & @ @ & + @ E @ 0 @ ; * + @ @ @ ; @ @ @ . + ",
"@ 0 @ * * ; @ @ @ = * ; { d { { 0 @ d 0 d @ = @.# d d d * 0 d * D @ E d d # * * d ; @ * @ @ @ @ ",
"; * @ @ * # = $ * d * @ ) { E X.d = %.@ ; d @ D * { d $ = @ ; * * @ # D $ = d E D * * * @ @ # @ ",
"P D P * # ; * @ ; # $ * ! ; E = ; E P { &.X.D ) $ ) E * ; P ; 6.@ ; $ * * * $ ; ; P $ * ; # $ = ",
"$ ! { = @ E ; D { * ; = D = ; * ; * ! { =...= = D X.O.D =.! ! X.D ; = P = ; D * S { ! E E @ <.v.",
"@ = P * A ) * D ; S @ = ..{ = D ; $ P X...* { * ! ..$ X...{ X.= ! P ! S ! ! * ; D P D ! ; ! = D ",
"* S S S ! ..~ <.! P * A O.O.! O.) = S D O.= ....O.+.* ! D S D * $ D ~ X.) ! O.S = P $ * S S P S ",
"S ~ ~ D A S ~ 6.O.O.O.! ^ O._ ~ ! * ! ! S _ S O.<.<.<...<.~ O.~ S A ! _ ..<._ <.f.~ _ ~ A ~ D * ",
"^ S S ~ ~ S S A D ~ <.O.<.^ ^ ! O.A ^ O...~ O.^ <.,.<.O.~ <.O...^ A ~ ~ O.D A ..<.O.<.^ A O._ ~ ",
"~ ^ ^ ~ ..~ ^ ~ O.~ S O.^ ~ ~ _ O.O.^ ,._ O._ S ^ A.D.,.,.<.,.5.O.,.O.O.O.O.^ ~ ~ ^ O.~ ~ ,.~ O.",
"^ ^ _ O.^ ^ O.O.^ _ ^ ^ ^ _ ~ O.,.<.O.O.^ ^ ,.:.^ M.S.7.,.O.O.,.,.O.<.5.O.<._ _ S z.u.~ ,.<.:.^ ",
"^ O.~ ^ O.^ ^ O.O.^ O.O.^ ^ _ O.,.^ :.O.O.~ :.<._ :.4.^ >.,.^ O.O.^ ^ ,.O.^ ^ O.^ 7.<._ _ O.:.^ ",
"^ ^ ^ ^ ^ ^ ^ 4.Z.m.4.:.:.,.:.:.,.^ <.,.:.,.^ :.:._ 4._ <.4.<.O._ :.^ O.:.^ ^ ,.,.^ ^ :._ ^ ^ ^ ",
":.^ ^ :.:.:.^ y.G.S.1.4.4.:.^ :.` :.` :.:.:.4.3.<.:.4.4.<.,.:.:.:.^ ^ :.:._ :.:.:.,.:.` :.^ :.:.",
":.5.h.1.:.:.:.:.d.4./ :.:.:.3.:.` :.4.1.:.:.4.y.^ :.4.7.4.4.3.:.:.4.:.4.:.:.:.4.:.1.4.:.:.:.:.:.",
"1.1.2.2.2.2.:.1.:.:.:.3.4.2.1.] 1.1.2.3.:.:.4.4.3.4.4.y.N.a.r.y.1.4.4.1.4.r.:.4.r.r.:.:.j.3.:.2.",
"2.1.:.1.w.2.1.1.1.w.2.:.1.1.2.h.2.2.1.2.w.w.2.1.2.2.2.2.n.p.r.y.y.2.2.2.2.y.2.2.w.:.1.1.:.1.1.2.",
"w.1.1.1.w.1.1.w.w.w.1.w.w.w.2.a.w.w.y.p.w.w.w.y.w.w.y.w.` r.i.w.y.w.1.p.1.w.w.w.w.p.V.h.1.1.1.1.",
"w.w.e.w.w.w.w.w.e.w.q.i.i.i.w.w.e.w.w.C.k.1.p.w.w.w.r.i.i.p.w.i.w.a.i.w.w.w.w.i.q.b.H.V.q.w.1.w.",
"q.w.t.w.0.0.w.w.w.w.w.i.s.e.w.w.i.i.t.i.t.w.w.w.w.i.w.w.w.w.w.w.w.w.i.w.i.t.s.t.w.i.b.p.w.t.w.w."
};
