/* XPM */
static char *_57cfb0e7d21482b83f3aa28a546bf1aqCy0yfVRDx14UCvm[] = {
/* columns rows colors chars-per-pixel */
"48 48 147 2 ",
"   c #040205",
".  c #0A0306",
"X  c #05030B",
"o  c #09040C",
"O  c #0A080E",
"+  c #110506",
"@  c #130609",
"#  c #1A0708",
"$  c #11080B",
"%  c #1A080A",
"&  c #050413",
"*  c #090513",
"=  c #0D0814",
"-  c #06051A",
";  c #09061B",
":  c #0B0A1C",
">  c #09091E",
",  c #08081F",
"<  c #0A081E",
"1  c #0A091F",
"2  c #0A0A1F",
"3  c #09091C",
"4  c #0C0A1F",
"5  c #0C0C1F",
"6  c #0C091C",
"7  c #110D14",
"8  c #120C1D",
"9  c #200707",
"0  c #230708",
"q  c #240A0B",
"w  c #050420",
"e  c #060520",
"r  c #060521",
"t  c #070620",
"y  c #070621",
"u  c #060523",
"i  c #060623",
"p  c #070623",
"a  c #070624",
"s  c #050427",
"d  c #060626",
"f  c #070726",
"g  c #070522",
"h  c #080721",
"j  c #090721",
"k  c #080622",
"l  c #080723",
"z  c #080725",
"x  c #090726",
"c  c #090727",
"v  c #0A0722",
"b  c #090820",
"n  c #0A0820",
"m  c #0B0A21",
"M  c #080822",
"N  c #090822",
"B  c #0A0922",
"V  c #0B0B23",
"C  c #0C0C20",
"Z  c #0C0C22",
"A  c #0D0C22",
"S  c #090824",
"D  c #090825",
"F  c #0A0925",
"G  c #090827",
"H  c #0A0826",
"J  c #0A0926",
"K  c #0A0827",
"L  c #0A0927",
"P  c #0A0A26",
"I  c #0C0B24",
"U  c #0C0A27",
"Y  c #0E0C25",
"T  c #0C0924",
"R  c #07052A",
"E  c #070729",
"W  c #06052C",
"Q  c #08072A",
"!  c #08072B",
"~  c #08072E",
"^  c #0B0928",
"/  c #0B0A28",
"(  c #0B0A29",
")  c #08082A",
"_  c #09082A",
"`  c #0A0A2A",
"'  c #0B0A2A",
"]  c #090929",
"[  c #0C0A28",
"{  c #0C0B29",
"}  c #0C0C2B",
"|  c #0E0C2A",
" . c #09092C",
".. c #09092D",
"X. c #09092E",
"o. c #09082F",
"O. c #0B092E",
"+. c #0A092F",
"@. c #0C0A2C",
"#. c #0C0B2C",
"$. c #0C0B2D",
"%. c #0C0B2E",
"&. c #0D0B2E",
"*. c #0E0D2C",
"=. c #0F0E2C",
"-. c #0D0C2E",
";. c #0E0D2E",
":. c #0F0D2F",
">. c #0D0A2A",
",. c #120C24",
"<. c #110C2C",
"1. c #181227",
"2. c #14102D",
"3. c #1C152B",
"4. c #0B0A31",
"5. c #090932",
"6. c #0C0B31",
"7. c #0D0B31",
"8. c #0C0A32",
"9. c #0C0C30",
"0. c #0D0C30",
"q. c #0D0C32",
"w. c #0D0C33",
"e. c #0E0C32",
"r. c #0F0D37",
"t. c #0F0B31",
"y. c #0F0D38",
"u. c #120D32",
"i. c #100E3A",
"p. c #110C39",
"a. c #121031",
"s. c #111137",
"d. c #141234",
"f. c #191432",
"g. c #1D1834",
"h. c #13123A",
"j. c #13133A",
"k. c #141238",
"l. c #11103E",
"z. c #15143C",
"x. c #15123A",
"c. c #181539",
"v. c #261E3E",
"b. c #111140",
"n. c #131345",
"m. c #1F1E47",
"M. c #15144A",
/* pixels */
"                          X X X X &   X X X X X & & - & & X & - m 3 & - & X & M - - W n.r.4.^ w ",
"                X   X       & X     X X & X X X & X & X X - & - V & - ) & & & i > i 5.b.4.) } ) ",
"                X X   X X X X X   X X X & X X X & & & & ` } - - n > l.4.- - > - f ) X.E X.) ` z.",
"        X       X X X   X & & X X X   & & & X & > & X - ` & & & - d M.^ - - > - X.X.d w f M X.5.",
"            X   X X X   X & & & & X X & & X & 3 - 5 & & * & 3 & & 4.0.@.c F w d 0.s X.@.d r - } ",
"X     X     X X X   X X X & & & & X X & & & & & & : 3 & * Z 3 - - r.7.r.F c r - a.z.s X.M ;.^ @.",
"    X   X X X & X X X X X & & > & & & & & & - & & & & & - > & 3 ; ;.E p.;.F h - Y m.r w - - r.@.",
"    X X X   X X X & X X X & & - & X & - r - - > 3 & & Z > Z & - A O.~ z.Q h r 7.- M > > F - - w ",
"    X X X X X X - & X X X - - F - & ; , h r - , > & & M 2 & > & n F k.k.} - d - 4 ^ w E r & - h ",
"X X X     X   X & & X & * - & n - - * U ^ ^ c r d & & > 3 & > M - U d.0.d d d & , - r - & - - - ",
"  X X X X & X X & & & & n - & , d n U r @.r ^ ;.i > - & - - - } ^ | ;.u.F w - & * - - & & & r A ",
"  X X X X & X & & & & - - - - U h n U d F >.>.<.& * - X n ^ F r O.a.| u.n & & & X & & & - & - - ",
"X X X & X X & & > > & & - > ^ >.F r U - - a.z.>.& * * ; n F F n u.2.- n <.2 & * - : - & & & - r ",
"X X X X & X & & & > - & & d O.^ U U c Y n - n , - & * , n Y F F h n 2 , z.z.- - ; 4 * - & & & & ",
"X X X X X & & - - & & & & r - Q h c >.>.2.2.M > & n n - h ,.h h U F : ; - O.0.- & & * & - & - & ",
"X X X & & X & - & - - - & d - @.^ F <., - F n * & * , - ; , 4 h c U * ; n g.^ & * & & - - - & X ",
"X & & & & & - 6 v <.; e v T v v F c , & - * - * ; - n , 6 - n U n * & & h <.; & & & - * & & & & ",
"X & & & & * ; n >.p.v <.p.>.; v , ; * ; & - & g.g.- , * - * - - h - - & & & & & * * & & & & & X ",
"& & 6 - - & - ; <.t.t.v >.<.T ; - & ; , - * * v f.4 4 * & o ; ; ; * & & & & & & : & & & & * & X ",
"- & & - - & - ; v e e v u.t.>.T ; & c <.<.; ; ; ; U ,.A & & & ; ; - & & & ; X & * ; * - & & & - ",
"& & & * & - ; - ; >.e ; t.<.v u.u.e <.v <.T T v & - v ; & 6 & * 6 & & & * , & & & ; * & X & , * ",
"* * - - & 8 T - ; v <.O.>.>.; T <.u.v ; ; ; n 8 * - ; & & & & * ; & & * - n ; X * & X & & X * & ",
"* ; - ; ; - T T ; ; v <.<.,.T T n <.; T ; ; * ; 6 * * & * * * - - & X o * & & * o & X * & X * & ",
"& & ; X * ; T T * - 8 <.<.T T f.; ; <.<.; ; ; ; 1.& & & * ; & * * & X & X & * * & X & & & & X X ",
"* * ; & & ; ; T T ; 6 ,.T T T <.>.v v ,.T ; * & & ,.,.* & * 8 * * * & & & X X X X * X & X * * o ",
", * o & * * = T u.T 6 6 ; <.<.,.T <.,.,.,.8 * & & ,.3.* & & 6 - * * * * X & & * X X * o * = ; ; ",
"- 6 - X * ; T T T ,.T T T <.<.u.T <.; ; 8 ; ; ; ; * * ; * * * * & * * & & X X * * X & * * X X & ",
"- 6 ; * 8 = T T ; 6 = = f.u.,.,.,.T ; * & * - * * * * * & & & * * & 8 & X * & * & * & * f.6 X X ",
"6 6 & ; ; ; T ; * * ; T <.T 6 8 ,.T = * * & & * * = X X = = * o ; * * * * = & & o & & o * * X X ",
"T ; ; ; - ; ,.= = * ; 6 6 6 ; T <.8 = 8 * 8 X o o = & o * * & & * X o & * & o o X & * & X * 4 & ",
"* = = = & * ; ; 6 = 8 ,.T T ,.; = ; 6 * o = = = X & o * = * * * & o & o * & o & * o o X X * * o ",
"& = * * * ; ; = * = 6 T 6 6 = * 8 1.= * & 8 = o & o * = = * o o o o X o * * * o X * X X o X & o ",
"* ; = * & ; = = * * ,.T * * * * = 8 X * = o o & X o & 7 = o & o * o o X o & o X X o X X o * o   ",
"o & * * = & * * = & = ,.6 = * * * * o * * * o $ & o o = o X * X X o & o o & X o X o o o o & o * ",
"& ; * * 8 & & * * = = = = * * * 8 * o = * * o * * * X o * o o * o X X o o o o & o X X o * o   o ",
"o X o o = ; o o = * = * * o o * * & = = o * * = X = & o * o o = = . X X . X X o * X . o . * X o ",
"X o X   o o * = & o = & o * * * = * * o o X o O o o o * . X o o o o o o & X X . o o o o o o . o ",
"= X 8 v.X = o o X o o = * o o $ o   X = = o * o X = * o o . X . o o o o X . $ * o o o o o X o o ",
"=   * ; o 8 = X X 7 * o o X o * X X o o o X   X . o = X o X X X . . o . X o o X X . . o . X X . ",
"        * 3.= X   . o o o X . X X o o . o o o o X . X . X $ o . o X . o . . o . . X X o . + o . ",
"    . X     X O X X o X o o X   X o o o   O O O X o X . O   . O   .   . o . . . . . . . . o $ X ",
"    X   X o X o   . o O o .   o X . O .   .   O . . o o     .   o X .   o . o . . . . . . . + + ",
"          o   O o X . O O . o   X         X           . . O O . O .   . . . . . o . . X . . + $ ",
"      O .   X O o X     X O   o O . .   .     . o   . . O O   .   .   . . . . . . . . . . . . + ",
"            O     .     . O   O O           . O .     . O   . . . . . . . .   . @ . . . @ . . + ",
"      O     .   o             o 7   .   .         O O       O . o . . O + . . . . @ + + + % # + ",
"              o O     O O       O .     .       O   . O . . O . . @ . . . . . + . @ + # # % q % ",
"          o     o . X .     . o     O . .     .   .   . . . . . O @ . + . + + + @ @ # # % 0 0 0 "
};
