/* XPM */
static char *e5e853476b3141eab31605b5a72cbdd9jDRHvTVseYU9wJ0L[] = {
/* columns rows colors chars-per-pixel */
"48 48 122 2 ",
"   c #000000",
".  c #0A0505",
"X  c #02010B",
"o  c #090909",
"O  c #110400",
"+  c #100802",
"@  c #1D0E01",
"#  c #030313",
"$  c #080713",
"%  c #0C0C14",
"&  c #04041B",
"*  c #08071C",
"=  c #0D0C18",
"-  c #151515",
";  c #17171A",
":  c #1B1B1E",
">  c #291401",
",  c #351800",
"<  c #3C1E01",
"1  c #30261C",
"2  c #060522",
"3  c #090720",
"4  c #090824",
"5  c #060629",
"6  c #08072C",
"7  c #0A092A",
"8  c #151524",
"9  c #1C1C23",
"0  c #0C0B32",
"q  c #0E0E39",
"w  c #10103F",
"e  c #212020",
"r  c #242429",
"t  c #2B2B2B",
"y  c #282B32",
"u  c #333334",
"i  c #3C3C3C",
"p  c #452200",
"a  c #4A2400",
"s  c #542900",
"d  c #632A00",
"f  c #6B3300",
"g  c #753900",
"h  c #533C25",
"j  c #434344",
"k  c #4A4A4C",
"l  c #535252",
"z  c #57565A",
"x  c #5C5C5C",
"c  c #61605F",
"v  c #5F5F60",
"b  c #5D6062",
"n  c #646464",
"m  c #686867",
"M  c gray42",
"N  c #747474",
"B  c #7C7C7C",
"V  c #813F00",
"C  c #864200",
"Z  c #884300",
"A  c #8A4400",
"S  c #8B4400",
"D  c #8D4500",
"F  c #904600",
"G  c #914700",
"H  c #954900",
"J  c #954A00",
"K  c #974A00",
"L  c #9A4C00",
"P  c #9C4D00",
"I  c #A14F00",
"U  c #A45100",
"Y  c #AB5400",
"T  c #B45900",
"R  c #BC5C00",
"E  c #C05F00",
"W  c #CC6500",
"Q  c #7D8083",
"!  c #838383",
"~  c #868683",
"^  c #858585",
"/  c gray53",
"(  c #888888",
")  c #898989",
"_  c #8B8B8A",
"`  c #919190",
"'  c #949494",
"]  c #979797",
"[  c gray61",
"{  c #A2A2A0",
"}  c #A9A9A7",
"|  c gray67",
" . c #ACACAC",
".. c #ADADAD",
"X. c #AEAEAD",
"o. c #B0B0AE",
"O. c #B2B2B2",
"+. c #B4B4B3",
"@. c #B5B5B4",
"#. c #B7B7B6",
"$. c gray72",
"%. c #BABAB9",
"&. c #BCBCBC",
"*. c gray",
"=. c #C0C0BE",
"-. c gray76",
";. c #C4C4C3",
":. c #C4C4C5",
">. c #C8C8C6",
",. c #C0C5C9",
"<. c #C8C8C8",
"1. c #CBCBCB",
"2. c #CBCBCC",
"3. c #CDCDCD",
"4. c #CDCDCE",
"5. c gray81",
"6. c gray82",
"7. c #D4D4D3",
"8. c #D3D3D4",
"9. c #D5D5D6",
"0. c gray87",
"q. c gray88",
/* pixels */
"      X     X   X     X   X X X X X X X X X X X $ $ # X       X # # # & $ # # * & 2 6 w q 6 7 2 ",
"    X         X X   X     X X X   X   X X X X X   X % : k z v z k ; 8 $   X & 3 * 3 0 q 0 7 7 7 ",
"  X     X     X X X X   X X X X X X X X $ X   - k ^ X.n :.9.9.0.+.m :.' c 9 # & 7 5 5 5 7 5 7 q ",
"      X X   X     X X X # X # X X X X #   9 t { 6.6.6.n ^ ) N Q z N ;.4.9.X.u 9 # 6 5 2 2 4 7 7 ",
"s < @     X X   X X X X X X # X X X   X l $.) B *.B j -           o : k ] ~ ) =.x # 5 5 2 2 2 7 ",
"D D Z g p + X X X   X   X # $ # $   9 ) <.4.X.t -                         o ^ 4.<.^ 8 2 4 4 4 7 ",
"C C Z D J Z a . X X X X X $ # * X ; N 8.-.N -                                 l &.8.x $ & 2 7 7 ",
"C C Z Z A F L V > X X X X # & X u #.m ! k                                       u N N { = & * 2 ",
"V C Z D D F D J L p X X # * X r @.2.X.o                                           o | 9.~ X * * ",
"C Z A A D F F J J I p X * # % } <.O.t                                           .   t $.>.x # 4 ",
"C Z A D F F J J J J U < & X u _ <.i   .                                               l 7.) X * ",
"Z Z D D F F F J L L P J O y #.M j                                                       z M b X ",
"Z Z D D F F J J J L L Y d v 8.O..                                                       e 4.o.= ",
"Z D D D G J J J L P P I P h ,.c                                                           ' 4.j ",
"Z A D F G J J J L L P P Y f Q e                                                           z q.n ",
"A D D F G J J L L L P I I L 1 X                                                           t X.N ",
"Z D F F H H J L P P P I U Y ,                                                               m M ",
"D F F F H H L J P P I I I Y p                                                             . *.&.",
"D D F F F H L L P P P U U Y p                                                             o O.X.",
"D D F H H L L L P I I U U Y p                                                             o O.+.",
"D F F J J L L L P P I U U Y p                                                             o $.$.",
"F F F J J L L L I U I U U Y p                                                             . ' ' ",
"F F L J J L P P P I U U U T p                                                             . M M ",
"F F J J L P P P I I U U U T p   .                                                         o *.&.",
"F J J L J L P P I U U U U T p                                                             o O.X.",
"F J J J L L P I I I U Y U T p                                                             o o.X.",
"F J J L P P I I U U U I Y T p                                                             o *.&.",
"J J L J P P P I I I Y Y Y T p                                                             . M m ",
"H H J L P P I I I Y U U Y T a                                                             . ' ' ",
"H L J L P P I I I U Y Y Y T p                                                             o $.$.",
"H K L P I I I I U Y Y Y Y T a                                                             o O.X.",
"K K P P P I U I I Y Y Y Y T a                                                             . *.$.",
"H L L P I I I I Y Y Y Y Y T a                                                               n n ",
"K L P P I I I Y I Y Y Y T T a                                                             . [ ] ",
"L L P P I I I Y Y Y Y Y Y E a   .                                                         o &.@.",
"K L P I I I I I U Y Y Y T T a                                                             o +.X.",
"L P P I I I U Y Y Y Y Y Y T a                                                             o *.$.",
"L P P I I I U U U Y T Y T R a                                                             . m M ",
"P P I I I I Y Y Y Y Y T T R a                                                             o ) ^ ",
"P P I I I Y I Y Y Y T Y T R a                                                             o &.$.",
"P P I U U U U Y Y T Y T T R a                                                             o +.X.",
"P P I I U U Y Y Y Y T T T R a                                                             o O.O.",
"I I I U Y U Y Y Y T T T T E a                                                             o o.o.",
"P I U U U Y Y Y T Y Y T T E a                                                             . c x ",
"I I U U U Y Y Y Y T T T T W p                                                             o | { ",
"P U U U U U Y Y Y Y T T T R a                                                             o O.O.",
"Y Y Y Y T T T T R R R E R W a                                                             o *.&.",
"p p p p p a a p a a a a a a >                                                             . l l "
};
