/* XPM */
static char *s23pipKdzMs_png[] = {
/* columns rows colors chars-per-pixel */
"48 48 221 2 ",
"   c None",
".  c #681D3B",
"X  c #4D2D2D",
"o  c #502D2C",
"O  c #593536",
"+  c #523130",
"@  c #653A23",
"#  c #753E24",
"$  c #6F3635",
"%  c #6F4537",
"&  c #7D4F38",
"*  c #3B2E56",
"=  c #3E335D",
"-  c #7C1C43",
";  c #473458",
":  c #573855",
">  c #583242",
",  c #7B2349",
"<  c #643D48",
"1  c #752658",
"2  c #773354",
"3  c #423364",
"4  c #453A65",
"5  c #45356B",
"6  c #4A366E",
"7  c #493C6A",
"8  c #493A65",
"9  c #593A6B",
"0  c #483672",
"q  c #4B3974",
"w  c #4E3B7B",
"e  c #473673",
"r  c #523E7E",
"t  c #543E75",
"y  c #72396B",
"u  c #70504F",
"i  c #594875",
"p  c #52436F",
"a  c #684878",
"s  c #745677",
"d  c #6D4B62",
"f  c #7A6578",
"g  c #891B3C",
"h  c #92193B",
"j  c #843834",
"k  c #B0223C",
"l  c #C72239",
"z  c #81432A",
"x  c #8B4633",
"c  c #845839",
"v  c #935A34",
"b  c #95502E",
"n  c #99653C",
"m  c #B17138",
"M  c #A76836",
"N  c #CB7E3A",
"B  c #952C54",
"V  c #B72642",
"C  c #A83152",
"Z  c #852C63",
"A  c #903967",
"S  c #C42A42",
"D  c #875C41",
"F  c #A85745",
"G  c #8F6447",
"H  c #956B4F",
"J  c #AC744A",
"K  c #B57858",
"L  c #B47150",
"P  c #8C506F",
"I  c #976A68",
"U  c #84737C",
"Y  c #887278",
"T  c #9A7472",
"R  c #A5776A",
"E  c #BB7863",
"W  c #B1736F",
"Q  c #C17B53",
"!  c #D37371",
"~  c #C08639",
"^  c #BD8E43",
"/  c #8C8378",
"(  c #A1837D",
")  c #D7944A",
"_  c #DEA15F",
"`  c #ECA953",
"'  c #C68876",
"]  c #D5927A",
"[  c #DFA46F",
"{  c #F3B57D",
"}  c #E79549",
"|  c #EEC159",
" . c #FAD16C",
".. c #FAC468",
"X. c #523E82",
"o. c #5E3E82",
"O. c #793D81",
"+. c #564186",
"@. c #57428A",
"#. c #5A448D",
"$. c #584186",
"%. c #5D5289",
"&. c #5D4693",
"*. c #5F4895",
"=. c #5E4998",
"-. c #644B8C",
";. c #68458A",
":. c #765889",
">. c #614994",
",. c #624B9A",
"<. c #664B97",
"1. c #645699",
"2. c #7B5A97",
"3. c #7B668A",
"4. c #79649C",
"5. c #6F6087",
"6. c #674EA3",
"7. c #6B51A4",
"8. c #6D53AA",
"9. c #6654A4",
"0. c #7156AE",
"q. c #7659A8",
"w. c #7157B1",
"e. c #755AB4",
"r. c #795EBA",
"t. c #795DB7",
"y. c #7B6DAB",
"u. c #7869A6",
"i. c #7970AE",
"p. c #7D62BE",
"a. c #786CBC",
"s. c #7570B0",
"d. c #7F6BC6",
"f. c #885D8B",
"g. c #856896",
"h. c #917B85",
"j. c #8259A8",
"k. c #8269A5",
"l. c #866BA8",
"z. c #8C74A8",
"x. c #9779A7",
"c. c #9672B7",
"v. c #8266C2",
"b. c #8D6DC3",
"n. c #836BC7",
"m. c #9B77C8",
"M. c #77C7E7",
"N. c #9F8383",
"B. c #A79498",
"V. c #B3898A",
"C. c #ABA197",
"Z. c #9A88AA",
"A. c #AF96AA",
"S. c #BEB3AC",
"D. c #C39784",
"F. c #D7978A",
"G. c #E28E87",
"H. c #D1A589",
"J. c #C5AB96",
"K. c #DEB293",
"L. c #EBA786",
"P. c #E9A693",
"I. c #E8B99A",
"U. c #F8BA97",
"Y. c #CBB8AA",
"T. c #CCBCB3",
"R. c #CCB4A7",
"E. c #D8C0A7",
"W. c #D9C7B6",
"Q. c #E6C9AC",
"!. c #FBC3A4",
"~. c #FDC9AC",
"^. c #F6C8A4",
"/. c #E8CEB3",
"(. c #FECDB2",
"). c #F4CCB4",
"_. c #EAD4B4",
"`. c #EEDABC",
"'. c #E7D3B6",
"]. c #F2DCBD",
"[. c #F6D7BC",
"{. c #8286CE",
"}. c #8C8CD2",
"|. c #BEB8D1",
" X c #8F89E4",
".X c #908CE6",
"XX c #9BA7EE",
"oX c #AEB9F6",
"OX c #90ACD8",
"+X c #99D8F3",
"@X c #9FCDF1",
"#X c #AADFFF",
"$X c #8EE7FE",
"%X c #BBEBFC",
"&X c #A7F2FF",
"*X c #B4F6FF",
"=X c #B1E5F1",
"-X c #DACAC2",
";X c #EEDEC5",
":X c #EFDEC9",
">X c #F0DFC7",
",X c #E6DBD0",
"<X c #F4E3C4",
"1X c #F4E4CB",
"2X c #F9E6C9",
"3X c #FAE9CB",
"4X c #F8E6C9",
"5X c #F2E6D2",
"6X c #F5E8D3",
"7X c #FAECD3",
"8X c #FBECD8",
"9X c #FBF4D7",
"0X c #DDDBE2",
"qX c #D9EBF7",
"wX c #D6EFF4",
"eX c #FEFBE5",
"rX c #FBF6E6",
"tX c #E8F3FB",
"yX c #FDFCF2",
"uX c #FEFEFC",
"iX c #F6F8F8",
/* pixels */
"                                                                                                ",
"                                                                                                ",
"                                                      q.                                        ",
"                                                  m.b.p.e.7.;.                                  ",
"                                                b.n.v.r.e.8.,.-.                                ",
"                                              t.r.p.p.t.0.6.,.*.<.2.                            ",
"              |                             >.0.w.t.e.8.7.,.*.$.+.>.-.                          ",
"            `  . .`                       R a 6.7.8.7.6.,.*.&.0 q X.-.                          ",
"            ` ....`                     4.Z.I #.>.=.,.,.f.I P : 5 w r 2.                        ",
"            } ` ) }                     5.3.K R R I s T H.V.W H ; 5 q -.                        ",
"              n D M                   O O $ N n % & m K g.s.s.u.p * 5 r                         ",
"                  G )               o o O % ) J u O v v O d s 4.3.  * 3 a                       ",
"                  c ~               s ( J.E.^.{ { [ _ G + X O < <     * i                       ",
"                  c M           k.k.z.E.I.J.D.U.~.^._.W.R $ X X o                               ",
"                D H m         c.l.k.x./.Q./ H U.~.).S./ K.L.K u +                               ",
"                c ^ n           l.u.x._.^.I.I.(.(.).C.u I.(.U.E.Y                               ",
"                  M n           x.x.A.:X2X[.(.(.~.~./.Q.(.!.I.'.A.u.                            ",
"                  c n             Y.1X8X7X2X[.(.~.[.7XrX6X^.].<XA.k.4.                          ",
"                  v G c             _.`.<X;X/.I.Q.<X2X7X7X`.<X4XB.4.u.                          ",
"                    D n             1X]._._.H.E ' Q._.`._.].7X7XB.i a                           ",
"                    v m             8X7X2X2XQ.! G.].4X2X9X7XeX9XA.&.i                           ",
"                    m n             -X8X2X2X4X/.<X2X7X9XeXrXyXrXZ.9.1.                          ",
"                  !.] J P.      b.0.A.7X2X3X2X2X2X2X9X9XrXiXiX0Xa.9.,.q.                        ",
"                !.~.U.) F.m.m.b.v.e.l.:X2X4X2X2X2X3X9XyXrXiXtXoX{.1.,.,.+.                      ",
"                !.~.U.Q ' c.n.n.d.w.z.1X4X;X7X2X4X1XeXuXyXuXqXoX}.u.1.>.&.q                     ",
"                !.~.U.K E c.v.v.p.w.z.1X4X5X7X2X<X5XyXuXiXiX%X#XOX{.a.w.8.&.5                   ",
"                  U.L.L F j.p.p.t.8.z.6X<X1X7X2X4X5XuXuXtXtX*X*X@XXX Xd.t.8.+.                  ",
"                    d u j O.w.w.0.6.3.6X4X1X7X2X<X5XuXuXqX&X&X&X+XoX.Xn.r.e.,.q                 ",
"                    8 4 . Z 6.7.7.=.i ,X6X;X7X3X<X5XyXuXqX+X$X$XM.XX Xn.r.e.8.X.                ",
"                    8 7 g B ,.,.,.r ; Y.7X;X7X3X;X1XyXyXrXwX%XwX=X|.}.d.r.t.e.#.                ",
"                      8 h Z *.*.&.q   Y [.Q.6X3X'.T.eX5X].eXiXyXyX2XA.p.r.t.e.*.5               ",
"                      8 h Z *.&.w   ; : ] ' W.3XY.f P.F.h.S.T.W.J.N.s w.e.e.w.>.6               ",
"                      4 g 1 X.q 5   6 i Q.Q.D.P.W f [.Q.f p i p 4 4 7 6.e.w.0.*.0               ",
"                      4 , 1 e 5     5 3.4X<X/.).J.U 6X4XU 5 5 5 3 = 7 ,.8.8.6.&.0               ",
"                      4 , , 5 *     3 3.7X2X4X3X`.Y W.6Xf 5 5 5 q 3 7 >.>.*.*.#.0               ",
"                        , - =     5 5 i W.'.W.3X4XU V.W.i 5 6 q w 5 7 >.*.*.*.@.e               ",
"                        g .       q q 5 s W f ;X<XU B P w q w X.+.q 4 -.>.*.*.X.5               ",
"                        g         r w q 9 k 9 B.Y.%.B Z #.+.+.@.#.X.4 -.,.*.&.w                 ",
"                                  +.+.+.o.k a 5.3.%.B B &.#.#.&.&.#.5 -.,.*.@.0                 ",
"                                  +.+.@.o.V a %.1.1.A C *.*.&.*.*.*.w t 7.*.r                   ",
"                                  @.@.#.;.V :.1.u.u.P V >.*.*.*.*.*.&.5 #.&.w                   ",
"                                  &.&.*.;.V g.u.y.i.f.l ;.*.*.*.*.*.*.X.6 #.q                   ",
"                                  &.*.=.O.S k.y.y.y.k.S y *.*.*.*.*.#.w 3 q 6                   ",
"                                    t 9 2 C u.u.y.y.y.C C *.*.&.+.t 6                           ",
"                                # # @ @ @ $               y : > O j                             ",
"                                  z z z x                 x x # z                               ",
"                                                            E F b                               ",
"                                                                                                "
};
