/* XPM */
static char *b31122c7aaaf4f33d31daa4c5e9f35b8kotCyYPwBWXja73v[] = {
/* columns rows colors chars-per-pixel */
"48 48 198 2 ",
"   c #030105",
".  c #0A0306",
"X  c #04020B",
"o  c #09040B",
"O  c #0D0A0B",
"+  c #130506",
"@  c #1B0607",
"#  c #140608",
"$  c #1B0708",
"%  c #100D0C",
"&  c #15110E",
"*  c #050313",
"=  c #090514",
"-  c #0D0A15",
";  c #06041B",
":  c #09061B",
">  c #0C091C",
",  c #110C1C",
"<  c #131112",
"1  c #1D1B17",
"2  c #15121B",
"3  c #230708",
"4  c #312D1F",
"5  c #060522",
"6  c #0A0723",
"7  c #0C0924",
"8  c #07072B",
"9  c #09072A",
"0  c #0C0A2B",
"q  c #110B24",
"w  c #110C2C",
"e  c #181624",
"r  c #1A152C",
"t  c #1D1C2A",
"y  c #0D0B32",
"u  c #0E0E39",
"i  c #100E34",
"p  c #100F3E",
"a  c #131134",
"s  c #14133B",
"d  c #1A173A",
"f  c #252421",
"g  c #2B2B27",
"h  c #3C343A",
"j  c #54371D",
"k  c #633F19",
"l  c #473032",
"z  c #43303E",
"x  c #53492E",
"c  c #664A31",
"v  c #030344",
"b  c #04044C",
"n  c #09094E",
"m  c #1E1B43",
"M  c #14144A",
"N  c #1C1B4D",
"B  c #050553",
"V  c #090856",
"C  c #0D0D5B",
"Z  c #0F1059",
"A  c #131354",
"S  c #181755",
"D  c #1C1C5C",
"F  c #3A3545",
"G  c #32315B",
"H  c #171767",
"J  c #1B1B63",
"K  c #1F1F76",
"L  c #232264",
"P  c #25246A",
"I  c #29276C",
"U  c #28286C",
"Y  c #353568",
"T  c #252474",
"R  c #282973",
"E  c #232378",
"W  c #2C2B7B",
"Q  c #32327C",
"!  c #413C5F",
"~  c #423E66",
"^  c #423F73",
"/  c #534953",
"(  c #515151",
")  c #595759",
"_  c #755F50",
"`  c #606044",
"'  c #737351",
"]  c #7B7B5C",
"[  c #494966",
"{  c #4B4B6D",
"}  c #5B5869",
"|  c #474777",
" . c #565678",
".. c #655C61",
"X. c #68686D",
"o. c #73696A",
"O. c #6D6172",
"+. c #777072",
"@. c #8D7563",
"#. c #857778",
"$. c #D0D03C",
"%. c #90904E",
"&. c #B1B153",
"*. c #8F827E",
"=. c #AFAF66",
"-. c #C6C660",
";. c #DFDF68",
":. c #222285",
">. c #2D2C83",
",. c #242489",
"<. c #2A2B89",
"1. c #323284",
"2. c #3A3A84",
"3. c #34348A",
"4. c #3D3D8D",
"5. c #2C2C93",
"6. c #343494",
"7. c #33339B",
"8. c #3C3C9D",
"9. c #2F2FA9",
"0. c #3435A3",
"q. c #3B3BA4",
"w. c #3535AB",
"e. c #3C3CAB",
"r. c #2F2FB1",
"t. c #3535B3",
"y. c #3B3BB4",
"u. c #3635B9",
"i. c #3D3DBA",
"p. c #453E8E",
"a. c #403F9D",
"s. c #3F40BC",
"d. c #41418A",
"f. c #494888",
"g. c #545483",
"h. c #555186",
"j. c #444393",
"k. c #484191",
"l. c #4A4994",
"z. c #43439B",
"x. c #4C4C9D",
"c. c #736B9B",
"v. c #4242A7",
"b. c #4A48A6",
"n. c #4141AC",
"m. c #4C4CAC",
"M. c #5656A6",
"N. c #4544B3",
"B. c #4A4AB4",
"V. c #4242BD",
"C. c #4A4ABA",
"Z. c #5151B9",
"A. c #7069A1",
"S. c #3E3EC3",
"D. c #4343C4",
"F. c #4C4CC5",
"G. c #4747CA",
"H. c #4A4ACB",
"J. c #5353CC",
"K. c #4646D2",
"L. c #4C4DD3",
"P. c #5353D3",
"I. c #5454DC",
"U. c #595ADC",
"Y. c #5656E2",
"T. c #5B5BE5",
"R. c #6161EE",
"E. c #9B8B8A",
"W. c #8E8295",
"Q. c #A69085",
"!. c #A39397",
"~. c #B9A49A",
"^. c #9185AF",
"/. c #9084B5",
"(. c #9D91B2",
"). c #AA9CB4",
"_. c #BCAAA6",
"`. c #BCAAA8",
"'. c #BFADBD",
"]. c #CDB6AC",
"[. c #C7B5B0",
"{. c #C9B6B2",
"}. c #CCBAB4",
"|. c #D3BEBA",
" X c #D6C1BA",
".X c #DDC8C3",
"XX c #E3CDC5",
"oX c #E5CFCA",
"OX c #E7D0CA",
"+X c #EAD3CD",
"@X c #EDD5D0",
"#X c #F2D9D3",
"$X c #F8DED7",
"%X c #F6DDD8",
"&X c #F8DFD9",
"*X c #FEE6D9",
"=X c #FDE3DC",
"-X c #FFE6E0",
/* pixels */
"                            X   X *   X X X   * U s.3.a     * ; > ; * ; * X * 5 ; 5 8 s u 8 0 5 ",
"                    X     X X X       X X   * >.m. .J.P.1.5 * ; > ; 5 5 * * * > ; 5 8 p y 8 0 5 ",
"                  X     X X X X X   X X *   D L.l.( N.F.U i ; ; > 5 u 8 ; ; ; ; 5 8 8 8 0 8 0 a ",
"                  * X X * X * X *   X *   - s.G.s.s.D.V.N X ; * ; 8 p 0 ; ; ; > 8 8 8 5 5 5 8 y ",
"                    X   X X * X X X   *   P G.s.s.s.D.S.s.s   * ; 8 i 8 9 5 ; 9 y 8 8 0 5 5 5 0 ",
"    X       X X X X X   X X ; * X * * X 0 e.6.w.t.s.w.~ z.s.0 * ; y 0 y 7 5 5 ; i a 8 5 5 0 5 0 ",
"  X   X X X X * X X X   X * ; * * X *   P 8.' { 9.w.0.( f.K.U * > 8 8 u 0 7 5 ; 7 s 5 5 > 5 0 0 ",
"      X X     X X X X   X ; * ; * * * 9 e.s.' | r.9.9.0.s.H.C.s : 8 y a 8 5 5 8 ; 7 > 5 5 ; ; 5 ",
"    X X X X   X * X X X * * ; 5 ; * * L L.V.0.w.0.{ } q.D.H.I.6.6 7 a i 8 ; 5 ; : 5 5 5 ; ; ; ; ",
"  X         X * * * * * = ; * ; ; * 2 { C.G.D.D.7.%.%.4.G.F.x.x.N 5 a y 8 5 5 * ; ; ; ; * * ; 5 ",
"  X X X X * X X * * X * ; * ; ; 5 ; x ] C.L.C.N.5.Y | q.L.G.) X.6.7 w i 7 ; * * * ; ; * * * ; ; ",
"      *   * X * * * * * ; ; ; 6 ; N M.l.k.^ l l ) !.'.).h.j.x.Z.U.N 7 0 6 ; * * * * * * ; * ; ; ",
"  X X * X X * * ; ; * * ; 5 0 0 ; W e.z j k c @.XX=X*X*X~.c h :.>.s ; 7 0 7 * * * = ; * * * * ; ",
"X X X X X * X * ; ; * * * 5 9 6 5 y d j c Q.o._.*X=X X#.@X]._ r 5 5 ; 5 a a ; ; : : ; ; * * * ; ",
"X X     X X * ; * * * * * ; 5 6 ; F *.~..X=X`.|.=X=XXX!.@X-XXXE.F 5 > = > 0 0 : * ; X ; * * * * ",
"X X * * * X * ; ; ; ; * ; ; 5 0 5 )  X&X=X&X=X%X|..X=X=X&X$X@X[.) ; - ; > a 7 * * X * = ; ; * X ",
"  * * X * * * : 6 7 : 6 7 6 6 6 5 w o.+X$X@X$X%X+X@X%X%X#X%X@X..q ; * * ; 0 : * * * * * * * * * ",
"* * * * * * : 6 9 i 7 9 y 9 : 6 ; ; t  X=X}.XX-X=X&X=XoX{.-X}.r ; = * * * * X * * * * * * * * X ",
"* * : ; * * * 6 9 w 9 7 9 w 6 : ; * * +.=XOX[.XX%X#XoX[.XX&Xo.* : * * * * * * * - * * * * * X * ",
"* * * * ; * ; ; 6 6 6 6 9 w q 9 : : 6 r !.=XOX{.{.{.{.oX=XE.> * : * * * * * * * * : * - * * * * ",
"* * * * * ; : ; : 6 6 6 w w 6 9 0 7 7 6 r #. X$X+X+X#X|.o.e X ; : * = * * : * * * : * * * * = * ",
"* * * ; = : : : : 6 7 6 9 7 6 7 0 w 6 : ; : ! W._._.W.[ : X = * > * * * * : * * * * X X * X * * ",
"* : : * = : 6 6 : : 7 9 w 7 7 7 7 7 7 6 0 L e.Z.| f.B.8.Q 7 * * * * X X * * = o o X * * * X * * ",
"* = = * = : 6 > : : q q q 6 q w 6 : q 7 T q.J.I.E 7.f.p.F.Q * = * * X * X = * = o * X * X * X X ",
"= * = = * * : 7 6 : > 6 6 q q q 7 7 : S q.n.P.P.>.n.J.J.C.Z.m * : = X = X * * X X X * * X = = = ",
": = X * = = : 7 w > > > > q 9 q 7 0 > G 6.H.L.P.<.q.T.Y.F.B.3.* * = * * X X X * * X o X = = * * ",
"; : = * = = : 7 6 q q > q w w w q 6 4 ( 8.G.l.b.>.0.I.F.L.n.n.w X * * * X X X * = X o = * = o * ",
": : = * > > 6 6 : : : > w w q q q 6 x | s.V.) { E 7.G.{ m.e.e.L o = * = = = * o X = = = q = X X ",
": : = = = : 6 : = = : 6 q q : q q w p.4.N.D.a.v.:.>.} &.] 3.7.Y = * = = = = = X o = o * = * = X ",
": : : : : : > : : = = > 6 : : > > a J.N.i.D.D.i.W 3.g.$.] w.Q ` < X o = = * o X X * = X X = = = ",
"= : : = = = = : = = , q > q > > * d P.n.i.V.s.i.R >.2.[ ^ y.5.^ t X X * = X X = = o X X X * = X ",
"o = = = = = = : = = , > : : > = * O./.a.y.i.i.w.J K 0.r.w.e.l.^.{.h   o o = = X X o X X X o X X ",
"= = : = = * : * = = , > : = = = X E.*X!.N.u.y.0.B H 0.w.t.b.`.*X&X/   o X o X X X o   o X o * X ",
"o * = = = = = = = o = , : = = =   } (.c.v.>.1.5.v n 7.t.t.b.A.^.O.2 X X X o o X X X X o o o o o ",
"= * o * > = = X = = - - = = = - o I s.t.y.1.>.,.B B 7.i.i.V.D.H.>.  X o o X X o o X X o o o X o ",
"o o X o = = o = = = = = o = # = X R G.s.y.t.t.,.b B 0.S.D.s.V.I.N.o   o o   X X o o o X o X . X ",
"X X o o = X o = o o = = = = = =   W K.6.3.u.t.:.v b q.G.V.h.g.H.F.q   o o   o o o X X o o o o o ",
"= o > r = o o o X o o = o o X o   U v.o.] d.0.:.v b e.G. .=.-.X.J.d   o o o o o . o o o X X   o ",
"o X = - = , = o o = X o o o o o   T l.-.;.} w.,.v n e.Y.M.=.&.M.T.m . o   o o o . o o o     . o ",
"        = 2 = o   o o X o X o X   1.B.%.&.f.S.<.n Z N.T.C.M.M.Z.T.m   . . o .   .   . . o . o . ",
"          o X X o   o o X o   o   Q B.d.z.4.D.5.M D F.R.T.R.R.T.R.m   . . o . . o . . . . o . . ",
"      X   o   X o   o o   o   o   U G.V.V.s.7.E S L 1.B.J.P.J.J.a.-     . .   . o . .   . . . . ",
"        X   X O o   o O o X   o   = q i Z C C H J U R J J A 7 , .     . . o . . . . . .   . + . ",
"        O     O o         O .   .     * b B C H D P R J H n     .     .   . . .   . . . . . o # ",
"            O   .         O   X o     = v B n Z M A D Z V u X   .   . . . .   . + . . . + + . . ",
"              o O       .     O O   o & e t t e < t t t 2 % O   . . . . . . . . . . + + + + @ + ",
"              X X     o o       O   O 1 f g g 1 % f g f 1 & % . . O . . . . + . . + + # @ $ 3 @ ",
"                O   .         o       O % < % O   . % % & O . . O # . . . + . . + # # @ @ @ 3 3 "
};
