/* XPM */
static char *b2e3123dbc424849a7de62b5a1d6b5f673jBTEkUfH7OUxQf[] = {
/* columns rows colors chars-per-pixel */
"48 48 239 2 ",
"   c #030105",
".  c #0A0306",
"X  c #04020B",
"o  c #09040B",
"O  c #0C080F",
"+  c #140505",
"@  c #1B0605",
"#  c #170A00",
"$  c #1B0B00",
"%  c #130509",
"&  c #1B0708",
"*  c #14090E",
"=  c #1C0C0D",
"-  c #0A190F",
";  c #050313",
":  c #090514",
">  c #080A12",
",  c #06051B",
"<  c #09061B",
"1  c #0A091C",
"2  c #110616",
"3  c #140914",
"4  c #1B0C13",
"5  c #130C1B",
"6  c #0B1615",
"7  c #1E1112",
"8  c #11191D",
"9  c #230C00",
"0  c #290C00",
"q  c #270A09",
"w  c #250A0A",
"e  c #390E07",
"r  c #261100",
"t  c #2B1300",
"y  c #321300",
"u  c #3C1102",
"i  c #381808",
"p  c #270B17",
"a  c #290B13",
"s  c #350E1B",
"d  c #221316",
"f  c #381518",
"g  c #11320E",
"h  c #16241A",
"j  c #153211",
"k  c #373113",
"l  c #060622",
"z  c #080723",
"x  c #070825",
"c  c #0A0923",
"v  c #0A0925",
"b  c #07072B",
"n  c #08072B",
"m  c #0A092A",
"M  c #0A092D",
"N  c #0C0C2E",
"B  c #130D2A",
"V  c #19122A",
"C  c #0C0B32",
"Z  c #0E0E39",
"A  c #110F34",
"S  c #100F3E",
"D  c #13123A",
"F  c #301124",
"G  c #102620",
"H  c #470E02",
"J  c #4E1A00",
"K  c #481708",
"L  c #5B1105",
"P  c #551807",
"I  c #44151A",
"U  c #571D16",
"Y  c #690A00",
"T  c #6A1605",
"R  c #621B01",
"E  c #741D04",
"W  c #462205",
"Q  c #5B2400",
"!  c #5D2B00",
"~  c #5A3507",
"^  c #592A13",
"/  c #682902",
"(  c #772801",
")  c #643805",
"_  c #773806",
"`  c #7F2014",
"'  c #16460B",
"]  c #1C520B",
"[  c #2A4A1B",
"{  c #286B0D",
"}  c #37671C",
"|  c #2E7111",
" . c #5C5707",
".. c #644402",
"X. c #6C4401",
"o. c #744301",
"O. c #794A05",
"+. c #705505",
"@. c #427423",
"#. c #821A04",
"$. c #931902",
"%. c #9D1B00",
"&. c #8B2800",
"*. c #852809",
"=. c #9A2A04",
"-. c #843403",
";. c #823807",
":. c #8D3C00",
">. c #953602",
",. c #993500",
"<. c #A32702",
"1. c #A32D03",
"2. c #AB2905",
"3. c #B72702",
"4. c #A83802",
"5. c #B63606",
"6. c #BC3B04",
"7. c #C32702",
"8. c #C22D02",
"9. c #CB2B00",
"0. c #D12C00",
"q. c #C33302",
"w. c #CA3702",
"e. c #DD3300",
"r. c #DD3C00",
"t. c #E33500",
"y. c #E43B00",
"u. c #E93D00",
"i. c #894403",
"p. c #994500",
"a. c #895907",
"s. c #9A5603",
"d. c #995C03",
"f. c #A94603",
"g. c #B74902",
"h. c #BC4A01",
"j. c #A55906",
"k. c #B85702",
"l. c #946903",
"z. c #AA6202",
"x. c #AD6B04",
"c. c #B66805",
"v. c #A97304",
"b. c #B77104",
"n. c #CD4400",
"m. c #C54B03",
"M. c #C84801",
"N. c #DA4501",
"B. c #D54B00",
"V. c #DC4C00",
"C. c #C85802",
"Z. c #D65702",
"A. c #DB5401",
"S. c #E54300",
"D. c #E84500",
"F. c #E54B01",
"G. c #EA4C00",
"H. c #E55302",
"J. c #EA5401",
"K. c #E55C02",
"L. c #EB5C00",
"P. c #E75A0B",
"I. c #C96700",
"U. c #CD6F03",
"Y. c #D96606",
"T. c #DB7602",
"R. c #E46302",
"E. c #EB6301",
"W. c #E66A03",
"Q. c #ED6B00",
"!. c #E9630D",
"~. c #E96A0A",
"^. c #F26600",
"/. c #F06B01",
"(. c #E57304",
"). c #EC7302",
"_. c #E67B01",
"`. c #EC7A03",
"'. c #EA7509",
"]. c #ED780B",
"[. c #F27401",
"{. c #F27C01",
"}. c #F87E02",
"|. c #E96A11",
" X c #EB7616",
".X c #EB7C12",
"XX c #EC7A19",
"oX c #418A15",
"OX c #4B971C",
"+X c #4F9923",
"@X c #AC8505",
"#X c #CC8904",
"$X c #DC8802",
"%X c #DE9902",
"&X c #ED8403",
"*X c #E18B04",
"=X c #EF8D05",
"-X c #EE890D",
";X c #F38501",
":X c #F38C01",
">X c #FB8D01",
",X c #F58508",
"<X c #E69202",
"1X c #EB9601",
"2X c #ED9A05",
"3X c #F39201",
"4X c #FC9301",
"5X c #F39B02",
"6X c #FC9B02",
"7X c #F2990B",
"8X c #EE8B1A",
"9X c #F08C1C",
"0X c #F29913",
"qX c #E7A305",
"wX c #ECA302",
"eX c #E4AC06",
"rX c #EBAC05",
"tX c #F4A303",
"yX c #FBA401",
"uX c #F5AB04",
"iX c #FCAB02",
"pX c #F4A50A",
"aX c #F4AD08",
"sX c #EBB307",
"dX c #F4B306",
"fX c #FBB405",
"gX c #F6BA06",
"hX c #FBBD06",
"jX c #F9B809",
"kX c #F7A816",
"lX c #F8B312",
"zX c #F29B2A",
"xX c #F29C31",
"cX c #F5A526",
"vX c #F5A635",
"bX c #FCC206",
"nX c #FECA07",
"mX c #FAC308",
"MX c #FECB08",
/* pixels */
"                          X   X X ;     X X X X ; ; ; ; X   ; , 1 , ; , ; X ; 1 , , b S Z M b l ",
"                          X ;         X X X X X X ; ; ; ; , ; , 1 , l l ; ; ; l l l C Z C m m v ",
"                  X     X X X X X   X ; ; X   ; ; ; ; ; l c , , < l A M , , , , l b b b b m m A ",
"                  ; X X X ; ; X ;     ; ; X ; ; 6 [ [ h c , ; ; , n S M , , , , b b b l x l b N ",
"                  X X   X X ; X X X X ; X X ; h @.+X| g > , ; ; ; n Z n z z l l b b b b l l l m ",
"      X       X X   X   X X , ; X ; ; X ; ; 6 @.OX{ j - > 1 1 ; < N C C n l l , N D b b l v m m ",
"  X X   X   X ; X X X   X ; ; , ; ; ; ; ; ; [ OX| g ; ; , , , , < M n A N v l , v D v , , l m m ",
"      X X X   X X ; X X X ; ; , ; X ; , , 1 } oX] - ; 1 1 1 ; , c n C A n l l z 1 c c 1 c , , l ",
"    X X X X   X ; ;   X X , , l , ; , l l 8 | | ' - ; < < ; , : l v A A v l l l < l l l , ; , < ",
"    X       X ; ; ; X ; : , ; , , ; , v n G { ] ] - , , , , , l l B A C v l , ; , , l , ; , , , ",
"  X X X X ; X ; ; ; ; ; 5 4 a s s f U U I k  .o.+.k 7 4 p p p s F F F A l , ; ; : , ; ; ; , , z ",
"    X X   ; X ; ; : a P *.1.5.6.g.m.N.N.w.g.Z.A.Z.h.>.<.5.5.3.7.7.5.1.` I 2 , ; X ; ; ; , ; , , ",
"X X X ; X X : ; 3 ^ f.A.G.P.P.K.P.G.F.F.|.XX~.W.W.E.F.y.H.|.H.y.y.S.H.F.w.#.a , , > , ; ; ; , , ",
"X X X X X ; ; 5 *.Y.'.R.P.XXXXR.H.F.F.|.xXxX'.(.(.~.K.S.H. XXXP.F.S.P.P.F.r.=.a , < : ; ; ; ; ; ",
"X X X X X X o _ |..X(.R.XX8X'.Q.L.J.L.9XvX9X_._.'.).W.L.F.~.8XXXE.J.G.P.!.F.r.*.3 ; : ; ; ; ; ; ",
"  X ; X ; ; i k..X(.W.'.8X-X_.A.K.E.~.zXcX-X&X-X&X`.~.E.L.K.Z..X].E.L.J.E.K.J.n.K ; ; , < ; ; ; ",
"X X ; ; ; : _ (.].).Q.-X0X,XK.9.N.Q.-XcX0X=X=X2X=X-X].Q.E.B.q.K.,X).Q.E.Q.).Q.L.>.4 , ; ; ; ; ; ",
"X ; : ; ; d j.`.`.).`.7X7X&XD.3.1.W.7XcX0X5X7X7X7X3X{.[.^.h.&.n.[.;X{.{.`.'.&X).C.K ; ; ; ; X X ",
"; ; , : ; i U.;X`.`.&X7X2X^.N./ J I.kXkXpXyXpXpXtX7X:X}.Q.:.y *.K.;X7X3X;X&X:X&XW./ ; ; ; ; ; X ",
"; ; , 1 , ) $X:X=X;X=XuX,XJ.,.t 9 :.0XlXaXaXaXaXaXtX:X}.M.J # t ,.R.7X5X3X:X1X:X&Xi.2 : ; ; ; ; ",
"; ; ; : ; O.<X5X:X&X3XtXH.2.u # # H k.lXjXjXdXdXjXiX4X).&.0 $ $ H =.T.uX5X:X3X5X:Xj.4 ; X ; < ; ",
": , , ; , a.2XtX3X;X5X<XM.:.X.o.o.O.x.rXbXhXmXhXjXaX6X_.p.O.a.l.l.c.$XfXtX:X5XtX5Xk.* ; ; X : ; ",
": : : , : a.tXtX3X:XyXdXqXeXwX1X1XrXdXmXbXbXhXdXmXiX6X>X&X3X5XfXmXhXmXfXiX:X5XtX5Xc.4 X ; X ; ; ",
"; : : ; ; a.wXtX3X;XiXMXMXMXfXyXiXhXMXMXnXnX#Xs.rXfX6X4X4X6XiXbXMXMXbXbXyX4X5XuXtXz.* ; X ; X X ",
": : : : ; +.2XtX3X;XyXMXMXmXfXyXyXhXnXnXMXrX_ y x.iX6X4X4X6XiXbXnXnXnXbXyX>X5XuXtXd.% ; X : ; ; ",
", : X ; ; ~ %XyX:X}.yXMXMXbXiXyXyXfXnXnXnXx.u 9 ! T.4X4X4X4XiXbXnXnXnXfX:X;X5XuX5Xi.: o : : : : ",
", < : ; : k #XyX;X[.5XnXMXhXyX4X6XiXnXnXgXb.s.d.s.U.4X4X4X4XiXhXMXnXsXU.B.[.5XyX<X~ ; ; : ; X ; ",
", < : : < d v.5X;X[.(.$XeXgX6X4X4XtXmXnXmXgXbXhXfX6X4X>X>X>XyXhXeX@XO.%.B.{.3XtX#Xi X : B : X X ",
"< < : : < 2 a.=X;X[.Z.q.,.a.c.*X:X6XfXmXhXbXbXbXfX4X>X>X>X>X$Xv...y Y q.Q.[.:X5Xd.q ; ; : : ; X ",
"< < < < : < ^ $X:X/.[.Z.%.J i ! i.z.%XgXdXrXrXaX5X;X}.;XY.i.~ t $ R 3.K.^.[.:X&X) : ; X   : : : ",
"< 2 < : : ; 7 x.:XQ.E.).m.$.H # $ r a.<Xj.) ..o.o._ C.T.) r # $ / Z.E.^.L.Q.[.k.i X o X X : : X ",
"o : : : : , z O._.^.J.W._.n.<./ r + _ k.J # $ $ $ 0 >.p.y $ y ;.Z.^.[.L.L.Q.W.-.2 X o X X ; o o ",
"; : < : : < : i C.E.G.J.[._.V.n.-.W :.-.r # $ $ # # H Q ( ! p.R.Q.^.^.G.L.Q.C.K   : X o o ; o X ",
"o : : : : ; ; 3 _ J.G.D.L.).E.F.B.g.C.f.Q y 0 0 y W / 4.6.h.W.Q.E.L.G.S.L.L.&.% X   X o o X o o ",
"o ; ; ; 3 : ; X s 5.S.S.S.L.L.J.F.F.V.K.m.,.-.:.f.h.Z.H.w.A.E.L.J.G.S.D.G.4.q X o X X X ; o X o ",
"o o X o : : ; O : K q.S.y.S.L.G.D.G.S.J.R.K.V.F.H.G.G.F.N.J.L.G.D.y.u.S.4.e o o :   X o o o o X ",
"X ; o o ; o X : o ; P 8.y.t.F.F.u.u.u.N.H.J.G.S.S.S.u.y.r.F.F.S.y.t.y.=.e X X o o X X X o o X o ",
"; X 5 V ; O : o o o : K <.0.t.y.u.u.y.y.y.S.u.y.y.u.u.t.y.D.y.e.0.3.E q X o o o o o o o X o X o ",
"O X O < : 5 : o o ; o o q T $.2.5.e.t.r.0.9.t.t.t.0.9.7.w.q.=.T L e %   . . o . . o o o X   . o ",
"        O 5 : X . o ; o o o + @ e E #.( T L #.$.#.L H P K H q . o     o o o o   .   . o . . . . ",
"    X   X o o X X   o o o o     o   o o X o O % X o .   o     o . .   . . o . . o . . . . o o . ",
"            X o o   o o   o   X   o X             . o .     o   . .     . .   . . . .   . . . . ",
"          X   o X o   o o   o   o   .     .   .   .     o o o . X     . . . . . . . . . . . % o ",
"      o       - o   X   o o   o .                       - o . . .       .   . .   . . .   . . % ",
"                o         o   o o                     .   .     .   . . . .   . + . . . + % . . ",
"            o                   -         .       . o .   . . o . . . . . . . . . . + % + + @ + ",
"                O       o       o     . .   . .   . o   .   .   > . . . . . + . . + % + + @ & q ",
"                o o     .     O .   o               .   . . . . + % . . . + . . + + + @ @ @ w w "
};
